<?xml version="1.0" encoding="utf-8"?>
<!-- Generator: Adobe Illustrator 23.0.2, SVG Export Plug-In . SVG Version: 6.00 Build 0)  -->
<svg version="1.1" id="Слой_1" xmlns="http://www.w3.org/2000/svg" xmlns:xlink="http://www.w3.org/1999/xlink" x="0px" y="0px"
	 viewBox="0 0 300 300" style="enable-background:new 0 0 300 300;" xml:space="preserve">
<style type="text/css">
	.st0{fill:#FFFFFF;}
</style>
<g>
	<path class="st0" d="M152.5,231.54c-42.6,0-82.66-16.59-112.78-46.72L22.39,167.5l24.4-24.4c28.24-28.24,65.78-43.79,105.71-43.79
		s77.48,15.55,105.71,43.79l24.39,24.4l-17.32,17.32C235.16,214.95,195.1,231.54,152.5,231.54z"/>
	<path d="M152.5,99.82c39.8,0,77.22,15.5,105.36,43.64l24.04,24.04l-16.97,16.97c-30.03,30.03-69.96,46.57-112.43,46.57
		S70.1,214.5,40.07,184.47L23.1,167.5l24.04-24.04C75.28,115.32,112.7,99.82,152.5,99.82 M152.5,98.82
		c-38.39,0-76.78,14.64-106.07,43.93L21.69,167.5l17.68,17.68c31.24,31.24,72.19,46.86,113.14,46.86s81.9-15.62,113.14-46.86
		l17.68-17.68l-24.75-24.75C229.28,113.46,190.89,98.82,152.5,98.82L152.5,98.82z"/>
</g>
</svg>
