<?xml version="1.0" encoding="utf-8"?>
<!-- Generator: Adobe Illustrator 23.0.2, SVG Export Plug-In . SVG Version: 6.00 Build 0)  -->
<svg version="1.1" id="Слой_1" xmlns="http://www.w3.org/2000/svg" xmlns:xlink="http://www.w3.org/1999/xlink" x="0px" y="0px"
	 viewBox="0 0 300 300" style="enable-background:new 0 0 300 300;" xml:space="preserve">
<style type="text/css">
	.st0{fill:#3D94F2;}
</style>
<g>
	<path class="st0" d="M152.5,231.5c-42.6,0-82.7-16.6-112.8-46.7l-17.3-17.3l24.4-24.4c28.2-28.2,65.8-43.8,105.7-43.8
		s77.5,15.6,105.7,43.8l24.4,24.4l-17.3,17.3C235.2,214.9,195.1,231.5,152.5,231.5z"/>
	<path class="st0" d="M152.5,99.8c39.8,0,77.2,15.5,105.4,43.6l24,24l-17,17c-30,30-70,46.6-112.4,46.6s-82.4-16.5-112.4-46.6
		l-17-17l24-24C75.3,115.3,112.7,99.8,152.5,99.8 M152.5,98.8c-38.4,0-76.8,14.6-106.1,43.9l-24.7,24.8l17.7,17.7
		c31.2,31.2,72.2,46.9,113.1,46.9s81.9-15.6,113.1-46.9l17.7-17.7l-24.8-24.8C229.3,113.5,190.9,98.8,152.5,98.8L152.5,98.8z"/>
</g>
</svg>
