<?xml version="1.0" encoding="utf-8"?>
<!-- Generator: Adobe Illustrator 23.0.2, SVG Export Plug-In . SVG Version: 6.00 Build 0)  -->
<svg version="1.1" id="Слой_1" xmlns="http://www.w3.org/2000/svg" xmlns:xlink="http://www.w3.org/1999/xlink" x="0px" y="0px"
	 viewBox="0 0 300 300" style="enable-background:new 0 0 300 300;" xml:space="preserve">
<style type="text/css">
	.st0{fill:none;stroke:#6B6B6F;stroke-width:5;stroke-miterlimit:10;}
</style>
<g>
	<path class="st0" d="M225.7,220.7"/>
	<path class="st0" d="M42.8,196.3L42.8,196.3c-20-19.1-20.7-50.7-1.6-70.7l0,0c19.1-20,50.7-20.7,70.7-1.6l36.2,34.5l-34.5,36.2
		C94.4,214.6,62.7,215.4,42.8,196.3z"/>
	<path class="st0" d="M252.8,120.7L252.8,120.7c20,19.1,20.7,50.7,1.6,70.7l0,0c-19.1,20-50.7,20.7-70.7,1.6l-36.2-34.5l34.5-36.2
		C201.1,102.4,232.8,101.6,252.8,120.7z"/>
</g>
</svg>
