<svg width="472" height="627" viewBox="0 0 472 627" fill="none" xmlns="http://www.w3.org/2000/svg">
<g clip-path="url(#clip0_4_144)">
<path opacity="0.09" d="M372.686 196.778C372.678 175.272 367.604 154.071 357.875 134.896C348.147 115.721 334.039 99.1115 316.695 86.4162C299.352 73.7208 279.263 65.2971 258.058 61.8287C236.852 58.3603 215.129 59.945 194.65 66.454C174.172 72.9631 155.515 84.2132 140.194 99.2912C124.873 114.369 113.32 132.85 106.472 153.235C99.6242 173.619 97.6747 195.332 100.782 216.612C103.889 237.892 111.965 258.138 124.354 275.709L125.218 276.92C126.978 279.357 128.816 281.747 130.748 284.058L232.214 415.207C232.609 415.857 233.165 416.395 233.828 416.769C234.491 417.142 235.239 417.338 236 417.338C236.761 417.338 237.509 417.142 238.172 416.769C238.835 416.395 239.391 415.857 239.786 415.207L346.357 278.413C363.528 255.504 372.686 227.58 372.686 196.778Z" fill="black"/>
<path d="M364.392 199.199C364.413 178.914 359.651 158.91 350.495 140.814C341.338 122.717 328.044 107.038 311.694 95.0518C295.344 83.0652 276.399 75.109 256.399 71.83C236.398 68.551 215.907 70.0416 196.591 76.1806C177.275 82.3197 159.678 92.934 145.231 107.161C130.785 121.388 119.896 138.826 113.45 158.057C107.003 177.289 105.182 197.771 108.133 217.84C111.084 237.909 118.725 256.998 130.434 273.555L131.235 274.687C132.9 276.983 134.639 279.226 136.45 281.417L232.041 404.986C232.416 405.598 232.942 406.103 233.568 406.453C234.193 406.803 234.898 406.987 235.615 406.987C236.332 406.987 237.037 406.803 237.663 406.453C238.288 406.103 238.814 405.598 239.189 404.986L339.571 276.055C355.752 254.514 364.392 228.209 364.392 199.199Z" fill="#997253"/>
<path opacity="0.26" d="M236.204 442.188C274.049 442.188 304.728 439.808 304.728 436.873C304.728 433.938 274.049 431.559 236.204 431.559C198.36 431.559 167.68 433.938 167.68 436.873C167.68 439.808 198.36 442.188 236.204 442.188Z" fill="black"/>
<path d="M235.623 279.593C281.293 279.593 318.316 242.536 318.316 196.825C318.316 151.114 281.293 114.057 235.623 114.057C189.953 114.057 152.93 151.114 152.93 196.825C152.93 242.536 189.953 279.593 235.623 279.593Z" fill="#F9F9F9"/>
<path d="M265.219 185.048C265.392 161.463 250.798 162.249 245.064 153.083C239.158 143.649 247.436 132.972 247.436 132.972C230.895 140.048 230.895 154.199 230.895 154.199C230.895 164.844 239.723 170.127 245.033 175.488C247.272 177.847 248.774 180.809 249.353 184.01C245.096 183.837 240.681 183.759 236.173 183.759C233.408 183.759 230.675 183.759 228.004 183.853C225.161 177.69 219.38 176.809 216.678 172.469C212.86 166.369 218.249 159.513 218.249 159.513C207.598 164.089 207.598 173.224 207.598 173.224C207.598 178.429 210.504 181.589 213.175 184.514C187.678 186.275 169.487 190.803 169.487 196.18C169.487 203.036 199.335 208.586 236.236 208.586C273.137 208.586 302.984 203.036 302.984 196.18C302.953 191.322 287.542 187.061 265.219 185.048Z" fill="#481A0A"/>
<path d="M398.795 199.797H470.146C460.841 144.375 432.213 94.0474 389.347 57.7508C346.48 21.4542 292.148 1.53754 236 1.53754C179.852 1.53754 125.52 21.4542 82.6535 57.7508C39.7868 94.0474 11.159 144.375 1.8537 199.797H69.9062V282.769H2.57633C12.7513 337.29 41.6566 386.532 84.2864 421.968C126.916 457.404 180.586 476.802 236 476.802C291.414 476.802 345.084 457.404 387.714 421.968C430.343 386.532 459.249 337.29 469.424 282.769H398.732L398.795 199.797Z" stroke="#481A0A" stroke-width="2" stroke-miterlimit="10"/>
</g>
<defs>
<clipPath id="clip0_4_144">
<rect width="472" height="627" fill="white"/>
</clipPath>
</defs>
</svg>
