<?xml version="1.0" encoding="utf-8"?>
<!-- Generator: Adobe Illustrator 23.0.2, SVG Export Plug-In . SVG Version: 6.00 Build 0)  -->
<svg version="1.1" id="Слой_1" xmlns="http://www.w3.org/2000/svg" xmlns:xlink="http://www.w3.org/1999/xlink" x="0px" y="0px"
	 viewBox="0 0 300 300" style="enable-background:new 0 0 300 300;" xml:space="preserve">
<style type="text/css">
	.st0{fill:none;stroke:#000000;stroke-width:8;stroke-miterlimit:10;}
	.st1{fill:none;}
</style>
<path class="st0" d="M200,124.3V112c0-6.6-5.4-12-12-12h-12.3c-3.2,0-6.2-1.3-8.5-3.5l-8.7-8.7c-4.7-4.7-12.3-4.7-17,0l-8.7,8.7
	c-2.3,2.3-5.3,3.5-8.5,3.5H112c-6.6,0-12,5.4-12,12v12.3c0,3.2-1.3,6.2-3.5,8.5l-8.7,8.7c-4.7,4.7-4.7,12.3,0,17l8.7,8.7
	c2.3,2.3,3.5,5.3,3.5,8.5V188c0,6.6,5.4,12,12,12h12.3c3.2,0,6.2,1.3,8.5,3.5l8.7,8.7c4.7,4.7,12.3,4.7,17,0l8.7-8.7
	c2.3-2.3,5.3-3.5,8.5-3.5H188c6.6,0,12-5.4,12-12v-12.3c0-3.2,1.3-6.2,3.5-8.5l8.7-8.7c4.7-4.7,4.7-12.3,0-17l-8.7-8.7
	C201.3,130.6,200,127.5,200,124.3z M150,185c-19.3,0-35-15.7-35-35s15.7-35,35-35s35,15.7,35,35S169.3,185,150,185z"/>
<rect class="st1" width="300" height="300"/>
</svg>
